<svg width="1080" height="1080" viewBox="0 0 1080 1080" xmlns="http://www.w3.org/2000/svg">

  <defs>
    <linearGradient id="bg" x1="0" y1="0" x2="0" y2="1">
      <stop offset="0" stop-color="#0B3D91"/>
      <stop offset="1" stop-color="#061A3F"/>
    </linearGradient>
    <linearGradient id="visor" x1="0" y1="0" x2="1" y2="0">
      <stop offset="0" stop-color="#FFD84D"/>
      <stop offset="1" stop-color="#FFC300"/>
    </linearGradient>
  </defs>

  <rect x="0" y="0" width="1080" height="1080" fill="url(#bg)"/>
  <circle cx="540" cy="540" r="470" fill="none" stroke="#FFC300" stroke-width="10" opacity="0.35"/>

  <g transform="translate(200,210) scale(1.7)">
    <path d="M200 65 C 150 65, 110 95, 95 150 C 88 185, 88 215, 95 245
             C 100 275, 115 302, 152 305 L 250 305 C 287 305, 316 285, 326 245
             C 339 200, 335 128, 300 100 C 275 78, 240 65, 200 65 Z" fill="#FFFFFF"/>
    <path d="M112 150 L 252 140 C 264 139, 272 147, 272 159 L 272 176
             C 272 188, 264 195, 252 196 L 116 202 C 105 202, 98 194, 98 183
             L 98 168 C 98 158, 103 151, 112 150 Z" fill="url(#visor)"/>
    <path d="M118 250 L 235 250" stroke="#0B3D91" stroke-width="10" stroke-linecap="round"/>
  </g>

</svg>